<svg id="Capa_1" enable-background="new 0 0 512 512" height="512" viewBox="0 0 512 512" width="512" xmlns="http://www.w3.org/2000/svg"><g><g><ellipse cx="256" cy="159.751" fill="#e2c4ff" rx="77.933" ry="77.932" transform="matrix(.16 -.987 .987 .16 57.306 386.856)"/></g><g><path d="m415.751 159.751c0-21.516-9.643-41.782-26.074-55.371 2.011-21.227-5.502-42.376-20.716-57.589-15.214-15.214-36.365-22.725-57.59-20.716-13.588-16.432-33.854-26.075-55.371-26.075s-41.783 9.642-55.371 26.074c-21.225-2.012-42.377 5.503-57.59 20.716-15.214 15.214-22.727 36.362-20.716 57.589-16.432 13.589-26.074 33.855-26.074 55.371s9.643 41.782 26.074 55.371c-2.011 21.228 5.502 42.376 20.716 57.589 15.215 15.214 36.361 22.726 57.59 20.716 11.46 13.858 27.669 22.886 45.371 25.375v19.56c-.725-.809-1.475-1.602-2.251-2.377v.001c-32.981-32.982-96.906-19.722-99.611-19.142-3.848.826-6.852 3.831-7.679 7.679-.581 2.705-13.841 66.629 19.141 99.612 18.07 18.069 45.423 22.259 66.911 22.259 9.36 0 17.607-.795 23.489-1.585v57.192c0 5.523 4.477 10 10 10 5.522 0 10-4.477 10-10v-57.191c5.882.79 14.128 1.585 23.488 1.585 21.488 0 48.844-4.191 66.912-22.259 32.981-32.982 19.722-96.906 19.141-99.611-.826-3.848-3.831-6.853-7.679-7.679-2.706-.58-66.629-13.84-99.611 19.141-.776.776-1.526 1.568-2.251 2.377v-19.56c17.702-2.489 33.911-11.517 45.371-25.375 2.264.214 4.525.32 6.78.32 18.888-.001 37.219-7.446 50.81-21.036 15.214-15.214 22.727-36.362 20.716-57.59 16.431-13.589 26.074-33.856 26.074-55.371zm-246.009 250.241c-20.062-20.062-16.994-59.154-14.82-74.686 15.537-2.173 54.626-5.24 74.684 14.82 12.798 12.797 16.184 33.338 16.394 50.567 0 0-.011 2.648-.002 3.672-.034 2.648-.137 5.193-.284 7.591l-24.346-24.346-.002-23.416c0-5.523-4.478-10-10.001-10-5.522 0-9.999 4.478-9.999 10v3.414l-10.178-10.178c-3.906-3.905-10.236-3.905-14.143 0-3.905 3.905-3.905 10.237 0 14.143l10.178 10.178h-3.413c-.001 0-.001 0-.001 0-5.522 0-10 4.477-10 10s4.477 10 9.999 10l23.416.001 24.346 24.345c-18.6 1.139-46.077-.355-61.828-16.105zm112.652-59.865c20.063-20.064 59.154-16.994 74.685-14.821 2.175 15.539 5.24 54.625-14.82 74.685-15.75 15.75-43.23 17.244-61.829 16.108l24.346-24.346 23.416-.001c5.522 0 9.999-4.478 9.999-10 0-5.523-4.478-10-10.001-10h-3.413l10.178-10.178c3.905-3.905 3.905-10.237 0-14.143-3.906-3.905-10.236-3.905-14.143 0l-10.178 10.178v-3.414c0-5.522-4.477-10-9.999-10-.001 0-.001 0-.001 0-5.522 0-10 4.477-10 10l-.002 23.416-24.392 24.392c-.132-2.337-.217-4.77-.24-7.272v-.169c.009-.947.011-1.907.004-2.877.21-18.138 3.869-39.037 16.39-51.558zm90.904-147.671c-3.243 2.236-4.872 6.167-4.159 10.042 3.088 16.794-2.266 34.018-14.32 46.072s-29.281 17.408-46.072 14.32c-3.882-.714-7.806.917-10.042 4.159-9.691 14.059-25.656 22.453-42.704 22.453s-33.013-8.394-42.704-22.453c-1.888-2.737-4.982-4.325-8.232-4.325-.6 0-1.205.054-1.81.166-16.786 3.086-34.018-2.265-46.072-14.32-12.055-12.054-17.408-29.277-14.32-46.072.713-3.874-.916-7.806-4.159-10.042-14.06-9.693-22.453-25.657-22.453-42.705s8.394-33.012 22.453-42.704c3.243-2.236 4.872-6.168 4.159-10.042-3.088-16.794 2.266-34.018 14.32-46.072 12.054-12.055 29.275-17.406 46.072-14.32 3.874.712 7.807-.916 10.042-4.159 9.69-14.06 25.655-22.454 42.703-22.454s33.013 8.394 42.704 22.453c2.236 3.244 6.166 4.872 10.042 4.159 16.798-3.086 34.018 2.266 46.072 14.32 12.055 12.055 17.408 29.278 14.32 46.072-.713 3.874.916 7.806 4.159 10.042 14.059 9.692 22.453 25.656 22.453 42.704.001 17.048-8.393 33.013-22.452 42.706z" fill="#020288"/></g></g></svg>