<svg id="Capa_1" enable-background="new 0 0 512 512" height="512" viewBox="0 0 512 512" width="512" xmlns="http://www.w3.org/2000/svg"><g><g fill="#020288"><path d="m289.488 253.776c21.488 0 48.844-4.191 66.912-22.259 32.981-32.982 19.722-96.906 19.141-99.611-.826-3.848-3.831-6.853-7.679-7.679-2.706-.581-66.629-13.84-99.611 19.141-5.128 5.128-9.137 11.003-12.251 17.28-3.114-6.277-7.123-12.152-12.251-17.28-32.98-32.982-96.907-19.722-99.611-19.142-3.848.826-6.852 3.831-7.679 7.679-.581 2.705-13.841 66.629 19.141 99.611 18.07 18.069 45.423 22.259 66.911 22.259 9.36 0 17.607-.795 23.489-1.585v57.192c0 5.523 4.477 10 10 10 5.522 0 10-4.477 10-10v-57.191c5.882.79 14.128 1.585 23.488 1.585zm-7.094-96.265c20.063-20.064 59.155-16.995 74.685-14.821 2.175 15.539 5.24 54.625-14.82 74.685-15.75 15.751-43.23 17.244-61.829 16.108l24.346-24.346 23.416-.001c5.522-.001 9.999-4.478 9.999-10.001s-4.478-10-10.001-9.999h-3.414l10.178-10.178c3.905-3.905 3.905-10.237 0-14.142-3.906-3.905-10.236-3.905-14.143.001l-10.178 10.178v-3.414c0-5.523-4.477-10-9.999-10.001-.001 0-.001 0-.001 0-5.522 0-10 4.477-10 9.999l-.002 23.417-24.392 24.391c-.133-2.362-.219-4.824-.241-7.355.01-.975.012-1.963.005-2.963.212-18.139 3.87-39.038 16.391-51.558zm-112.652 59.864c-20.061-20.062-16.994-59.153-14.82-74.685 15.537-2.174 54.625-5.24 74.685 14.82 12.864 12.864 16.219 33.551 16.396 50.835-.014 1.15-.015 2.286-.005 3.404-.034 2.648-.137 5.193-.284 7.591l-24.346-24.346-.002-23.417c0-5.523-4.478-10-10.001-9.999-5.522.001-9.999 4.478-9.999 10.001v3.414l-10.178-10.178c-3.904-3.905-10.234-3.905-14.143-.001-3.905 3.905-3.905 10.237 0 14.142l10.178 10.178h-3.414c-.001 0-.001 0-.001 0-5.522 0-10 4.477-10 9.999 0 5.523 4.477 10 9.999 10.001l23.416.001 24.345 24.345c-18.598 1.139-46.076-.356-61.826-16.105z"/><path d="m386.514 53.971c-34.879-34.813-81.212-53.971-130.511-53.971-.117 0-.241.001-.358.001-49.498.093-96.096 19.862-131.21 55.666-35.078 35.767-53.919 82.669-53.052 132.068.67 38.135 12.895 74.546 35.354 105.297 21.999 30.122 52.125 52.645 87.12 65.136 7.46 2.663 12.473 9.799 12.473 17.759v21.542h20v-21.542c0-16.391-10.348-31.098-25.75-36.595-64.121-22.887-108.006-83.951-109.2-151.948-.772-43.998 16.038-85.803 47.335-117.713 31.331-31.948 72.871-49.588 116.967-49.671h.32c43.96 0 85.283 17.085 116.383 48.127 31.121 31.063 48.261 72.37 48.261 116.312 0 69.388-43.945 131.653-109.352 154.938-15.326 5.456-25.623 20.146-25.623 36.555v21.537h20v-21.537c0-7.969 4.955-15.088 12.33-17.713 73.357-26.116 122.645-95.952 122.645-173.78 0-49.292-19.225-95.626-54.132-130.468z"/></g><g><path d="m201.874 457.065h108.252v54.935h-108.252z" fill="#e2c4ff"/><g><path d="m186.545 378.819h138.91v78.247h-138.91z" fill="#e2c4ff"/></g></g></g></svg>