<svg id="Capa_1" enable-background="new 0 0 512 512" height="512" viewBox="0 0 512 512" width="512" xmlns="http://www.w3.org/2000/svg"><g><g><path d="m435.106 162.564c-.826-3.847-3.831-6.852-7.678-7.678-2.934-.63-72.271-15.02-107.936 20.651-30.143 30.145-24.535 84.34-21.694 102.176l-31.798 31.658v-100.684c15.898-11.362 66.97-51.772 66.97-101.972 0-58.188-68.619-103.224-71.54-105.112-3.305-2.137-7.555-2.137-10.859 0-2.921 1.889-71.54 46.925-71.54 105.112 0 50.199 51.071 90.61 66.97 101.972v100.648l-31.794-31.645c2.842-17.859 8.432-72.021-21.698-102.153-35.666-35.671-105.002-21.28-107.937-20.651-3.847.826-6.852 3.831-7.678 7.678-.63 2.935-15.019 72.277 20.647 107.948 19.51 19.512 49.093 24.045 72.372 24.045 13.122 0 24.242-1.44 30.425-2.451l45.662 45.448v44.837c0 5.523 4.477 10 10 10s10-4.477 10-10v-44.797l45.684-45.484c6.187 1.01 17.294 2.447 30.403 2.447 23.278 0 52.864-4.535 72.372-24.045 35.666-35.671 21.277-105.014 20.647-107.948zm-323.422 93.806c-22.499-22.502-18.732-66.445-16.34-83.048 16.599-2.415 60.45-6.219 83.021 16.356 17.94 17.942 19.181 49.515 17.735 69.991l-22.285-22.18v-25.77c0-5.523-4.478-10-10-10s-10 4.477-10 10v5.864l-18.724-18.636c-3.914-3.895-10.246-3.882-14.143.034-3.896 3.914-3.881 10.246.033 14.142l18.783 18.695h-6.045c-5.523 0-10 4.477-10 10s4.478 10 10 10h26.139l22.353 22.248c-20.457 1.507-52.429.404-70.527-17.696zm87.346-149.655c0-38.879 41.783-73.27 56.97-84.483 15.192 11.218 56.97 45.607 56.97 84.483 0 32.103-28.49 61.146-46.97 76.608v-51.301l22.008-22.01c3.905-3.906 3.905-10.237-.001-14.142-3.904-3.905-10.237-3.905-14.142 0l-7.865 7.865v-25.174c0-5.523-4.477-10-10-10-5.522 0-10 4.477-10 10v25.175l-7.865-7.866c-3.902-3.904-10.235-3.906-14.142 0-3.906 3.905-3.906 10.236-.001 14.142l22.008 22.009v51.334c-18.479-15.427-46.97-44.435-46.97-76.64zm201.286 149.655c-18.096 18.096-50.057 19.202-70.511 17.697l22.348-22.25h26.127c5.522 0 10-4.477 10-10s-4.478-10-10-10h-6.039l18.778-18.696c3.914-3.896 3.928-10.228.031-14.142-3.896-3.913-10.228-3.927-14.143-.031l-18.723 18.641v-5.87c0-5.523-4.478-10-10-10s-10 4.477-10 10v25.783l-22.282 22.185c-1.449-20.479-.212-52.063 17.733-70.009 22.493-22.497 66.414-18.735 83.022-16.344 2.394 16.622 6.15 60.542-16.341 83.036z" fill="#020288"/></g><g><g><path d="m338.044 448.53c.006-.421.01-.842.01-1.265 0-45.69-37.039-82.729-82.729-82.729-40.058 0-73.467 28.471-81.094 66.282-.544-.013-1.089-.02-1.635-.02-37.374 0-67.671 30.297-67.671 67.671 0 1.184.032 2.362.092 3.531h288.272c-2.576-28.919-26.068-51.821-55.245-53.47z" fill="#e2c4ff"/></g><path d="m453.617 512h-395.234c-5.522 0-10-4.477-10-10s4.478-10 10-10h395.234c5.522 0 10 4.477 10 10s-4.477 10-10 10z" fill="#020288"/></g></g></svg>